# xmcd
#
# Track frame offsets:
#	150
#	13951
#	31373
#	45411
#	58213
#	78177
#	90384
#	108939
#	123829
#	138310
#	153389
#	170227
#	184527
#	194666
#	211115
#	225734
#	241324
#
# Disc length: 3388 seconds
#
# Revision: 2
# Processed by: cddbd v1.5.2PL0 Copyright (c) Steve Scherf et al.
# Submitted via: audiograbber 1.83.01
#
DISCID=dd0d3a11
DTITLE=Various Artist - CDX 536
DYEAR=2011
DGENRE=Country
TTITLE0=Josh Thompson - Comin' Around
TTITLE1=George Strait - Love's Gonna Make It Alright
TTITLE2=Steve Holy - Until The Rain Stops
TTITLE3=Tim Dugger - Way Past My Beer Time 
TTITLE4=Sawyer Brown - Travelin'  Band
TTITLE5=Oak Ridge Boyas - Wat'cha Gonna Do?
TTITLE6=38 Special - Help Somebody
TTITLE7=Jason Michael Carroll - Meet Me in the Barn
TTITLE8=Jimmy Eugene - Honey Do
TTITLE9=Levi Riggs - My Best Friend's A Girl
TTITLE10=Steele - Private Road 
TTITLE11=Chad Warrix - Rain On The Roof
TTITLE12=Tobi Gordon - Santa's Kicking Up His Country Heels Tonight
TTITLE13=Doug Wayne - Almost Time For Christmas
TTITLE14=The Love Pirate - Christmas Every Day With you
TTITLE15=Paul Parr - Christmas In The Desert
TTITLE16=4 Sisters and A Cousin - White Christmas
EXTD=
EXTT0=
EXTT1=
EXTT2=
EXTT3=
EXTT4=
EXTT5=
EXTT6=
EXTT7=
EXTT8=
EXTT9=
EXTT10=
EXTT11=
EXTT12=
EXTT13=
EXTT14=
EXTT15=
EXTT16=
PLAYORDER=
